<mxfile host="app.diagrams.net" agent="Mozilla/5.0 (Windows NT 10.0; Win64; x64) AppleWebKit/537.36 (KHTML, like Gecko) Chrome/140.0.0.0 Safari/537.36 Edg/140.0.0.0" version="28.2.0">
  <diagram name="ページ1" id="taQEWdTHZiVdu1f6Igw2">
    <mxGraphModel dx="915" dy="541" grid="1" gridSize="10" guides="1" tooltips="1" connect="1" arrows="1" fold="1" page="1" pageScale="1" pageWidth="827" pageHeight="1169" math="0" shadow="0">
      <root>
        <mxCell id="0" />
        <mxCell id="1" parent="0" />
        <mxCell id="nmPzoguPQtyLXV5S9syo-3" value="" style="rounded=0;whiteSpace=wrap;html=1;" vertex="1" parent="1">
          <mxGeometry x="145" y="90" width="500" height="610" as="geometry" />
        </mxCell>
        <mxCell id="nmPzoguPQtyLXV5S9syo-1" value="天は人の上に人を造らず、人の下に人を造らず" style="rounded=0;whiteSpace=wrap;html=1;" vertex="1" parent="1">
          <mxGeometry x="275" y="170" width="210" height="60" as="geometry" />
        </mxCell>
        <mxCell id="nmPzoguPQtyLXV5S9syo-4" value="天が人間を誕生させる" style="rounded=0;whiteSpace=wrap;html=1;" vertex="1" parent="1">
          <mxGeometry x="325" y="260" width="130" height="60" as="geometry" />
        </mxCell>
        <mxCell id="nmPzoguPQtyLXV5S9syo-6" value="衣食住が充実" style="rounded=0;whiteSpace=wrap;html=1;" vertex="1" parent="1">
          <mxGeometry x="335" y="470" width="120" height="60" as="geometry" />
        </mxCell>
        <mxCell id="nmPzoguPQtyLXV5S9syo-7" value="誰もが同じ身分" style="text;html=1;align=center;verticalAlign=middle;whiteSpace=wrap;rounded=0;" vertex="1" parent="1">
          <mxGeometry x="470" y="260" width="90" height="30" as="geometry" />
        </mxCell>
        <mxCell id="nmPzoguPQtyLXV5S9syo-8" value="差別はない" style="text;html=1;align=center;verticalAlign=middle;whiteSpace=wrap;rounded=0;" vertex="1" parent="1">
          <mxGeometry x="470" y="290" width="80" height="30" as="geometry" />
        </mxCell>
        <mxCell id="nmPzoguPQtyLXV5S9syo-9" value="天地の間にあるものすべてを活用" style="rounded=0;whiteSpace=wrap;html=1;" vertex="1" parent="1">
          <mxGeometry x="330" y="360" width="120" height="60" as="geometry" />
        </mxCell>
        <mxCell id="nmPzoguPQtyLXV5S9syo-10" value="自由自在に生きる" style="text;html=1;align=center;verticalAlign=middle;whiteSpace=wrap;rounded=0;" vertex="1" parent="1">
          <mxGeometry x="470" y="410" width="105" height="30" as="geometry" />
        </mxCell>
        <mxCell id="nmPzoguPQtyLXV5S9syo-11" value="他人の迷惑にならないように生活" style="text;html=1;align=center;verticalAlign=middle;whiteSpace=wrap;rounded=0;" vertex="1" parent="1">
          <mxGeometry x="470" y="470" width="120" height="30" as="geometry" />
        </mxCell>
        <mxCell id="nmPzoguPQtyLXV5S9syo-13" value="天の趣旨" style="text;html=1;align=center;verticalAlign=middle;whiteSpace=wrap;rounded=0;" vertex="1" parent="1">
          <mxGeometry x="335" y="90" width="90" height="60" as="geometry" />
        </mxCell>
        <mxCell id="nmPzoguPQtyLXV5S9syo-14" value="誰もが安心して、楽しくこの世で生きていける" style="rounded=0;whiteSpace=wrap;html=1;" vertex="1" parent="1">
          <mxGeometry x="340" y="590" width="120" height="60" as="geometry" />
        </mxCell>
        <mxCell id="nmPzoguPQtyLXV5S9syo-15" value="天の願い" style="text;html=1;align=center;verticalAlign=middle;whiteSpace=wrap;rounded=0;" vertex="1" parent="1">
          <mxGeometry x="492.5" y="590" width="60" height="30" as="geometry" />
        </mxCell>
        <mxCell id="nmPzoguPQtyLXV5S9syo-16" value="name" style="endArrow=block;endFill=1;html=1;edgeStyle=orthogonalEdgeStyle;align=left;verticalAlign=top;rounded=0;exitX=0.5;exitY=1;exitDx=0;exitDy=0;" edge="1" parent="1" source="nmPzoguPQtyLXV5S9syo-1">
          <mxGeometry x="-1" relative="1" as="geometry">
            <mxPoint x="270" y="380" as="sourcePoint" />
            <mxPoint x="380" y="270" as="targetPoint" />
          </mxGeometry>
        </mxCell>
        <mxCell id="nmPzoguPQtyLXV5S9syo-17" value="1" style="edgeLabel;resizable=0;html=1;align=left;verticalAlign=bottom;" connectable="0" vertex="1" parent="nmPzoguPQtyLXV5S9syo-16">
          <mxGeometry x="-1" relative="1" as="geometry" />
        </mxCell>
        <mxCell id="nmPzoguPQtyLXV5S9syo-18" value="dispatch" style="html=1;verticalAlign=bottom;startArrow=oval;startFill=1;endArrow=block;startSize=8;curved=0;rounded=0;entryX=0.5;entryY=0;entryDx=0;entryDy=0;exitX=0.5;exitY=1;exitDx=0;exitDy=0;" edge="1" parent="1" source="nmPzoguPQtyLXV5S9syo-4" target="nmPzoguPQtyLXV5S9syo-9">
          <mxGeometry width="60" relative="1" as="geometry">
            <mxPoint x="320" y="320" as="sourcePoint" />
            <mxPoint x="380" y="320" as="targetPoint" />
          </mxGeometry>
        </mxCell>
        <mxCell id="nmPzoguPQtyLXV5S9syo-19" value="name" style="endArrow=block;endFill=1;html=1;edgeStyle=orthogonalEdgeStyle;align=left;verticalAlign=top;rounded=0;entryX=0.5;entryY=0;entryDx=0;entryDy=0;" edge="1" parent="1" target="nmPzoguPQtyLXV5S9syo-6">
          <mxGeometry x="-1" relative="1" as="geometry">
            <mxPoint x="395" y="420" as="sourcePoint" />
            <mxPoint x="430" y="420" as="targetPoint" />
          </mxGeometry>
        </mxCell>
        <mxCell id="nmPzoguPQtyLXV5S9syo-20" value="1" style="edgeLabel;resizable=0;html=1;align=left;verticalAlign=bottom;" connectable="0" vertex="1" parent="nmPzoguPQtyLXV5S9syo-19">
          <mxGeometry x="-1" relative="1" as="geometry" />
        </mxCell>
        <mxCell id="nmPzoguPQtyLXV5S9syo-21" value="dispatch" style="html=1;verticalAlign=bottom;startArrow=oval;startFill=1;endArrow=block;startSize=8;curved=0;rounded=0;entryX=0.5;entryY=0;entryDx=0;entryDy=0;exitX=0.5;exitY=1;exitDx=0;exitDy=0;" edge="1" parent="1" source="nmPzoguPQtyLXV5S9syo-6" target="nmPzoguPQtyLXV5S9syo-14">
          <mxGeometry width="60" relative="1" as="geometry">
            <mxPoint x="320" y="420" as="sourcePoint" />
            <mxPoint x="380" y="420" as="targetPoint" />
          </mxGeometry>
        </mxCell>
      </root>
    </mxGraphModel>
  </diagram>
</mxfile>
